<svg width="108" height="28" viewBox="0 0 108 28" fill="none" xmlns="http://www.w3.org/2000/svg">
<path d="M28 14C28 6.26801 21.732 0 14 0C6.26801 0 0 6.26801 0 14C0 21.732 6.26801 28 14 28C21.732 28 28 21.732 28 14Z" fill="#FFDD00"/>
<path d="M11.5995 7.54982C12.5328 5.48339 15.4672 5.48339 16.4005 7.54982L17.2509 9.43272C17.5149 10.0171 17.9829 10.4851 18.5673 10.7491L20.4502 11.5995C22.5166 12.5328 22.5166 15.4672 20.4502 16.4005L18.5673 17.2509C17.9829 17.5149 17.5149 17.9829 17.2509 18.5673L16.4005 20.4502C15.4672 22.5166 12.5328 22.5166 11.5995 20.4502L10.7491 18.5673C10.4851 17.9829 10.0171 17.5149 9.43272 17.2509L7.54982 16.4005C5.48339 15.4672 5.48339 12.5328 7.54982 11.5995L9.43272 10.7491C10.0171 10.4851 10.4851 10.0171 10.7491 9.43272L11.5995 7.54982Z" fill="black"/>
<path d="M97.2115 26.7145L100.454 19.5385L101.053 18.5495L104.089 10.2695H107.769L100.661 26.7145H97.2115ZM99.6955 21.7695L95.1875 10.2695H98.9135L102.617 20.7575L99.6955 21.7695Z" fill="black"/>
<path d="M90.3288 22.2295C89.2094 22.2295 88.2971 21.9688 87.5918 21.4475C86.9018 20.9261 86.4954 20.2131 86.3728 19.3085L86.5568 19.2855V21.9995H83.1758V5.43945H86.6258V12.8685L86.4188 12.8225C86.5874 11.9638 87.0321 11.2891 87.7528 10.7985C88.4888 10.2925 89.4088 10.0395 90.5128 10.0395C91.5708 10.0395 92.4831 10.2925 93.2498 10.7985C94.0318 11.2891 94.6298 11.9868 95.0438 12.8915C95.4731 13.7961 95.6878 14.8618 95.6878 16.0885C95.6878 17.3305 95.4654 18.4115 95.0208 19.3315C94.5761 20.2515 93.9551 20.9645 93.1578 21.4705C92.3604 21.9765 91.4174 22.2295 90.3288 22.2295ZM89.3628 19.4695C90.1754 19.4695 90.8348 19.1781 91.3408 18.5955C91.8468 18.0128 92.0998 17.1848 92.0998 16.1115C92.0998 15.0381 91.8391 14.2178 91.3178 13.6505C90.8118 13.0831 90.1448 12.7995 89.3168 12.7995C88.5194 12.7995 87.8601 13.0908 87.3388 13.6735C86.8328 14.2408 86.5798 15.0611 86.5798 16.1345C86.5798 17.2078 86.8328 18.0358 87.3388 18.6185C87.8601 19.1858 88.5348 19.4695 89.3628 19.4695Z" fill="black"/>
<path d="M76.5763 22.2295C75.457 22.2295 74.5447 21.9688 73.8393 21.4475C73.1493 20.9261 72.743 20.2131 72.6203 19.3085L72.8043 19.2855V21.9995H69.4233V5.43945H72.8733V12.8685L72.6663 12.8225C72.835 11.9638 73.2797 11.2891 74.0003 10.7985C74.7363 10.2925 75.6563 10.0395 76.7603 10.0395C77.8183 10.0395 78.7307 10.2925 79.4973 10.7985C80.2793 11.2891 80.8773 11.9868 81.2913 12.8915C81.7207 13.7961 81.9353 14.8618 81.9353 16.0885C81.9353 17.3305 81.713 18.4115 81.2683 19.3315C80.8237 20.2515 80.2027 20.9645 79.4053 21.4705C78.608 21.9765 77.665 22.2295 76.5763 22.2295ZM75.6103 19.4695C76.423 19.4695 77.0823 19.1781 77.5883 18.5955C78.0943 18.0128 78.3473 17.1848 78.3473 16.1115C78.3473 15.0381 78.0867 14.2178 77.5653 13.6505C77.0593 13.0831 76.3923 12.7995 75.5643 12.7995C74.767 12.7995 74.1077 13.0908 73.5863 13.6735C73.0803 14.2408 72.8273 15.0611 72.8273 16.1345C72.8273 17.2078 73.0803 18.0358 73.5863 18.6185C74.1077 19.1858 74.7823 19.4695 75.6103 19.4695Z" fill="black"/>
<path d="M59.8478 22.2295C59.0198 22.2295 58.3068 22.0532 57.7088 21.7005C57.1261 21.3325 56.6815 20.8495 56.3748 20.2515C56.0681 19.6382 55.9148 18.9559 55.9148 18.2045V10.2695H59.3648V17.5375C59.3648 18.1815 59.5258 18.6645 59.8478 18.9865C60.1698 19.3085 60.6221 19.4695 61.2048 19.4695C61.7261 19.4695 62.1861 19.3469 62.5848 19.1015C62.9835 18.8562 63.2978 18.5189 63.5278 18.0895C63.7731 17.6449 63.8958 17.1389 63.8958 16.5715L64.1948 19.4005C63.8115 20.2439 63.2518 20.9262 62.5158 21.4475C61.7798 21.9689 60.8905 22.2295 59.8478 22.2295ZM63.9648 21.9995V19.2395H63.8958V10.2695H67.3458V21.9995H63.9648Z" fill="black"/>
<path d="M52.8977 22.2524C51.395 22.2524 50.2757 21.892 49.5397 21.1714C48.819 20.4354 48.4587 19.3237 48.4587 17.8364V7.64738L51.9087 6.35938V17.9514C51.9087 18.4727 52.0543 18.8637 52.3457 19.1244C52.637 19.385 53.0893 19.5154 53.7027 19.5154C53.9327 19.5154 54.1473 19.4924 54.3467 19.4464C54.546 19.4004 54.7453 19.3467 54.9447 19.2854V21.9074C54.7453 22.0147 54.4617 22.099 54.0937 22.1604C53.741 22.2217 53.3423 22.2524 52.8977 22.2524ZM46.2737 12.8914V10.2694H54.9447V12.8914H46.2737Z" fill="black"/>
<path d="M39.708 22.2065C37.5613 22.2065 35.844 21.7312 34.556 20.7805C33.268 19.8145 32.5167 18.4575 32.302 16.7095H35.706C35.8133 17.5989 36.2427 18.3042 36.994 18.8255C37.7453 19.3315 38.7037 19.5845 39.869 19.5845C40.8197 19.5845 41.548 19.4159 42.054 19.0785C42.5753 18.7412 42.836 18.2889 42.836 17.7215C42.836 17.1849 42.6827 16.7555 42.376 16.4335C42.0693 16.0962 41.5403 15.8279 40.789 15.6285L37.707 14.7775C36.1277 14.3329 34.97 13.7272 34.234 12.9605C33.5133 12.1785 33.153 11.2049 33.153 10.0395C33.153 9.04286 33.406 8.18419 33.912 7.46352C34.4333 6.72752 35.1617 6.16786 36.097 5.78452C37.0323 5.38586 38.1287 5.18652 39.386 5.18652C41.318 5.18652 42.859 5.64652 44.009 6.56652C45.159 7.47119 45.8107 8.67486 45.964 10.1775H42.56C42.4067 9.36486 42.031 8.76686 41.433 8.38352C40.8503 8.00019 40.099 7.80852 39.179 7.80852C38.3817 7.80852 37.7453 7.96186 37.27 8.26852C36.7947 8.57519 36.557 8.98919 36.557 9.51052C36.557 9.90919 36.6873 10.2772 36.948 10.6145C37.2087 10.9365 37.753 11.2125 38.581 11.4425L41.663 12.2935C43.2883 12.7382 44.4537 13.3515 45.159 14.1335C45.8797 14.9002 46.24 15.8739 46.24 17.0545C46.24 18.7105 45.665 19.9832 44.515 20.8725C43.365 21.7619 41.7627 22.2065 39.708 22.2065Z" fill="black"/>
</svg>
