<svg width="119" height="28" viewBox="0 0 119 28" fill="none" xmlns="http://www.w3.org/2000/svg">
<path d="M35.1088 22V9.1228H37.7548V12.298L37.3012 12.046C37.4272 11.038 37.7296 10.2484 38.2084 9.6772C38.6956 9.106 39.3088 8.8204 40.048 8.8204C40.7032 8.8204 41.224 9.0178 41.6104 9.4126C41.9968 9.8074 42.2656 10.2316 42.4168 10.6852C42.7108 10.2148 43.093 9.7864 43.5634 9.4C44.0422 9.0136 44.6344 8.8204 45.34 8.8204C46.348 8.8204 47.1124 9.1816 47.6332 9.904C48.154 10.6264 48.4144 11.8948 48.4144 13.7092V22H45.7684V14.1376C45.7684 13.2556 45.6886 12.613 45.529 12.2098C45.3694 11.7982 45.0544 11.5924 44.584 11.5924C44.29 11.5924 44.0338 11.6932 43.8154 11.8948C43.6054 12.0964 43.4416 12.3904 43.324 12.7768C43.2064 13.1548 43.1476 13.6168 43.1476 14.1628V22H40.5016V14.062C40.5016 13.5412 40.4596 13.096 40.3756 12.7264C40.2916 12.3568 40.1614 12.0754 39.985 11.8822C39.8086 11.689 39.5776 11.5924 39.292 11.5924C38.9812 11.5924 38.7082 11.6932 38.473 11.8948C38.2462 12.0964 38.0698 12.3904 37.9438 12.7768C37.8178 13.1548 37.7548 13.6168 37.7548 14.1628V22H35.1088ZM56.5845 22.3024C55.4169 22.3024 54.4089 22.0378 53.5605 21.5086C52.7121 20.9794 52.0569 20.2108 51.5949 19.2028C51.1413 18.1948 50.9145 16.9768 50.9145 15.5488C50.9145 14.1544 51.1539 12.9574 51.6327 11.9578C52.1115 10.9498 52.7709 10.177 53.6109 9.6394C54.4509 9.0934 55.4169 8.8204 56.5089 8.8204C57.2313 8.8204 57.8655 8.9422 58.4115 9.1858C58.9659 9.421 59.3985 9.7108 59.7093 10.0552V5.1412L62.6073 3.8056V22H59.7093V21.0172C59.4741 21.328 59.0793 21.622 58.5249 21.8992C57.9789 22.168 57.3321 22.3024 56.5845 22.3024ZM56.9877 19.5304C57.6681 19.5304 58.2225 19.4254 58.6509 19.2154C59.0793 18.997 59.4321 18.682 59.7093 18.2704V12.8272C59.5077 12.55 59.1885 12.2728 58.7517 11.9956C58.3149 11.71 57.7101 11.5672 56.9373 11.5672C55.9461 11.5672 55.1817 11.9116 54.6441 12.6004C54.1065 13.2808 53.8377 14.2636 53.8377 15.5488C53.8377 16.3384 53.9595 17.0314 54.2031 17.6278C54.4467 18.2242 54.7995 18.6904 55.2615 19.0264C55.7319 19.3624 56.3073 19.5304 56.9877 19.5304ZM64.931 22L69.6434 15.322L65.2586 9.1228H68.585L70.601 11.9704C70.727 12.1468 70.8488 12.3358 70.9664 12.5374C71.0924 12.7306 71.1974 12.9112 71.2814 13.0792C71.3738 12.9112 71.483 12.7306 71.609 12.5374C71.735 12.3358 71.861 12.1468 71.987 11.9704L74.003 9.1228H77.3294L72.9698 15.322L77.657 22H74.3306L71.987 18.6988C71.861 18.5224 71.735 18.3334 71.609 18.1318C71.483 17.9302 71.3738 17.7496 71.2814 17.59C71.1974 17.7496 71.0924 17.9302 70.9664 18.1318C70.8488 18.3334 70.727 18.5224 70.601 18.6988L68.2826 22H64.931ZM83.7355 22V9.1228H86.6335V22H83.7355ZM80.1823 22V19.4548H90.1867V22H80.1823ZM80.1823 11.668V9.1228H85.6255V11.668H80.1823ZM85.1719 7.3336C84.6931 7.3336 84.2857 7.1656 83.9497 6.8296C83.6221 6.4852 83.4583 6.0736 83.4583 5.5948C83.4583 5.116 83.6221 4.7128 83.9497 4.3852C84.2857 4.0492 84.6931 3.8812 85.1719 3.8812C85.6675 3.8812 86.0791 4.0492 86.4067 4.3852C86.7427 4.7128 86.9107 5.116 86.9107 5.5948C86.9107 6.0736 86.7427 6.4852 86.4067 6.8296C86.0791 7.1656 85.6675 7.3336 85.1719 7.3336ZM95.5849 22V11.668H92.8129V9.1228H95.5849V7.3588C95.5849 6.6868 95.7193 6.1366 95.9881 5.7082C96.2569 5.2714 96.6097 4.9354 97.0465 4.7002C97.4917 4.4566 97.9705 4.2886 98.4829 4.1962C99.0037 4.1038 99.5077 4.0576 99.9949 4.0576C100.65 4.0576 101.217 4.108 101.696 4.2088C102.175 4.3012 102.632 4.4608 103.069 4.6876V7.0816C102.616 6.8884 102.187 6.7666 101.784 6.7162C101.389 6.6574 101.003 6.628 100.625 6.628C100.238 6.628 99.8815 6.6742 99.5539 6.7666C99.2347 6.859 98.9743 7.0018 98.7727 7.195C98.5795 7.3798 98.4829 7.6192 98.4829 7.9132V9.1228H102.817V11.668H98.4829V22H95.5849ZM92.8129 22V19.4548H101.91V22H92.8129ZM107.636 26.8888L109.601 21.7732L104.788 9.1228H107.737L110.685 16.9852C110.752 17.17 110.819 17.3674 110.887 17.5774C110.954 17.7874 111.013 17.9932 111.063 18.1948C111.13 17.9764 111.197 17.7664 111.265 17.5648C111.332 17.3632 111.399 17.17 111.466 16.9852L114.415 9.1228H117.388L110.635 26.8888H107.636Z" fill="black"/>
<rect width="28" height="28" rx="14" fill="#FFDD00"/>
<path d="M12.6075 7.94976C13.4829 6.01154 16.2353 6.01154 17.1107 7.94976L17.9084 9.71584C18.1559 10.264 18.5949 10.703 19.143 10.9505L20.9091 11.7482C22.8473 12.6235 22.8473 15.376 20.9091 16.2513L19.143 17.049C18.5949 17.2965 18.1559 17.7355 17.9084 18.2837L17.1107 20.0497C16.2353 21.988 13.4829 21.988 12.6075 20.0497L11.8099 18.2837C11.5623 17.7355 11.1233 17.2965 10.5752 17.049L8.80913 16.2513C6.87091 15.376 6.87091 12.6235 8.80913 11.7482L10.5752 10.9505C11.1233 10.703 11.5623 10.264 11.8099 9.71584L12.6075 7.94976Z" fill="black"/>
</svg>
