<svg width="170" height="170" viewBox="0 0 170 170" fill="none" xmlns="http://www.w3.org/2000/svg">
<rect width="170" height="170" rx="85" fill="#FFDD00"/>
<path d="M71.3297 48.2677C76.6445 36.5 93.3556 36.5 98.6704 48.2677L103.513 58.9904C105.016 62.3182 107.682 64.9835 111.009 66.4866L121.732 71.3294C133.5 76.6443 133.5 93.3553 121.732 98.6702L111.009 103.513C107.682 105.016 105.016 107.681 103.513 111.009L98.6704 121.732C93.3556 133.5 76.6445 133.5 71.3297 121.732L66.4868 111.009C64.9838 107.681 62.3185 105.016 58.9906 103.513L48.268 98.6702C36.5002 93.3553 36.5002 76.6443 48.268 71.3294L58.9906 66.4866C62.3185 64.9836 64.9838 62.3182 66.4868 58.9904L71.3297 48.2677Z" fill="black"/>
</svg>
